<mxfile host="65bd71144e">
    <diagram id="2PRPoLjGO5rXmXJFN90n" name="Page-1">
        <mxGraphModel dx="546" dy="551" grid="1" gridSize="10" guides="1" tooltips="1" connect="1" arrows="1" fold="1" page="0" pageScale="1" pageWidth="827" pageHeight="1169" math="0" shadow="0">
            <root>
                <mxCell id="0"/>
                <mxCell id="1" parent="0"/>
                <mxCell id="32" style="edgeStyle=none;html=1;entryX=0.5;entryY=0;entryDx=0;entryDy=0;startArrow=classic;startFill=1;endSize=6;strokeWidth=3;" parent="1" target="6" edge="1">
                    <mxGeometry relative="1" as="geometry">
                        <mxPoint x="355" y="170" as="sourcePoint"/>
                    </mxGeometry>
                </mxCell>
                <mxCell id="HLrtYbc_yfZJu5hpqQ70-126" style="edgeStyle=orthogonalEdgeStyle;rounded=0;orthogonalLoop=1;jettySize=auto;html=1;exitX=1;exitY=0.75;exitDx=0;exitDy=0;entryX=0.008;entryY=0.407;entryDx=0;entryDy=0;entryPerimeter=0;endSize=6;strokeWidth=1;" parent="1" source="2" target="19" edge="1">
                    <mxGeometry relative="1" as="geometry"/>
                </mxCell>
                <mxCell id="HLrtYbc_yfZJu5hpqQ70-127" style="edgeStyle=orthogonalEdgeStyle;rounded=0;orthogonalLoop=1;jettySize=auto;html=1;exitX=1;exitY=0.75;exitDx=0;exitDy=0;entryX=0;entryY=0.5;entryDx=0;entryDy=0;endSize=6;strokeWidth=1;" parent="1" source="2" target="27" edge="1">
                    <mxGeometry relative="1" as="geometry">
                        <Array as="points">
                            <mxPoint x="530" y="143"/>
                            <mxPoint x="555" y="143"/>
                        </Array>
                    </mxGeometry>
                </mxCell>
                <mxCell id="2" value="FSM" style="swimlane;" parent="1" vertex="1">
                    <mxGeometry x="120" y="-110" width="410" height="280" as="geometry"/>
                </mxCell>
                <mxCell id="HLrtYbc_yfZJu5hpqQ70-35" value="reset" style="ellipse;whiteSpace=wrap;html=1;aspect=fixed;" parent="2" vertex="1">
                    <mxGeometry x="20" y="80" width="50" height="50" as="geometry"/>
                </mxCell>
                <mxCell id="HLrtYbc_yfZJu5hpqQ70-36" value="add 5" style="ellipse;whiteSpace=wrap;html=1;aspect=fixed;" parent="2" vertex="1">
                    <mxGeometry x="180" y="115" width="50" height="50" as="geometry"/>
                </mxCell>
                <mxCell id="HLrtYbc_yfZJu5hpqQ70-37" value="add 2" style="ellipse;whiteSpace=wrap;html=1;aspect=fixed;" parent="2" vertex="1">
                    <mxGeometry x="177.5" y="177.5" width="52.5" height="52.5" as="geometry"/>
                </mxCell>
                <mxCell id="HLrtYbc_yfZJu5hpqQ70-145" style="rounded=0;orthogonalLoop=1;jettySize=auto;html=1;exitX=0.74;exitY=0.973;exitDx=0;exitDy=0;entryX=0.5;entryY=0;entryDx=0;entryDy=0;endSize=6;strokeWidth=1;exitPerimeter=0;" parent="2" source="HLrtYbc_yfZJu5hpqQ70-43" target="HLrtYbc_yfZJu5hpqQ70-131" edge="1">
                    <mxGeometry relative="1" as="geometry"/>
                </mxCell>
                <mxCell id="HLrtYbc_yfZJu5hpqQ70-43" value="sub&lt;br&gt;price" style="ellipse;whiteSpace=wrap;html=1;aspect=fixed;" parent="2" vertex="1">
                    <mxGeometry x="320" y="42.5" width="45" height="45" as="geometry"/>
                </mxCell>
                <mxCell id="HLrtYbc_yfZJu5hpqQ70-141" style="edgeStyle=orthogonalEdgeStyle;curved=1;rounded=0;orthogonalLoop=1;jettySize=auto;html=1;exitX=0.5;exitY=1;exitDx=0;exitDy=0;entryX=0.5;entryY=0;entryDx=0;entryDy=0;endSize=6;strokeWidth=1;" parent="2" source="HLrtYbc_yfZJu5hpqQ70-44" target="HLrtYbc_yfZJu5hpqQ70-54" edge="1">
                    <mxGeometry relative="1" as="geometry"/>
                </mxCell>
                <mxCell id="HLrtYbc_yfZJu5hpqQ70-44" value="alarm" style="ellipse;whiteSpace=wrap;html=1;aspect=fixed;" parent="2" vertex="1">
                    <mxGeometry x="272.5" y="85" width="45" height="45" as="geometry"/>
                </mxCell>
                <mxCell id="HLrtYbc_yfZJu5hpqQ70-49" style="rounded=0;orthogonalLoop=1;jettySize=auto;html=1;exitX=1;exitY=0;exitDx=0;exitDy=0;entryX=0;entryY=0.5;entryDx=0;entryDy=0;" parent="2" source="HLrtYbc_yfZJu5hpqQ70-45" target="HLrtYbc_yfZJu5hpqQ70-36" edge="1">
                    <mxGeometry relative="1" as="geometry"/>
                </mxCell>
                <mxCell id="HLrtYbc_yfZJu5hpqQ70-50" value="0010" style="edgeLabel;html=1;align=center;verticalAlign=middle;resizable=0;points=[];" parent="HLrtYbc_yfZJu5hpqQ70-49" vertex="1" connectable="0">
                    <mxGeometry x="-0.3203" y="3" relative="1" as="geometry">
                        <mxPoint as="offset"/>
                    </mxGeometry>
                </mxCell>
                <mxCell id="HLrtYbc_yfZJu5hpqQ70-51" style="rounded=0;orthogonalLoop=1;jettySize=auto;html=1;exitX=1;exitY=1;exitDx=0;exitDy=0;entryX=0;entryY=0.5;entryDx=0;entryDy=0;" parent="2" source="HLrtYbc_yfZJu5hpqQ70-45" target="HLrtYbc_yfZJu5hpqQ70-37" edge="1">
                    <mxGeometry relative="1" as="geometry"/>
                </mxCell>
                <mxCell id="HLrtYbc_yfZJu5hpqQ70-52" value="0100" style="edgeLabel;html=1;align=center;verticalAlign=middle;resizable=0;points=[];" parent="HLrtYbc_yfZJu5hpqQ70-51" vertex="1" connectable="0">
                    <mxGeometry x="-0.3138" relative="1" as="geometry">
                        <mxPoint as="offset"/>
                    </mxGeometry>
                </mxCell>
                <mxCell id="HLrtYbc_yfZJu5hpqQ70-45" value="ready" style="ellipse;whiteSpace=wrap;html=1;aspect=fixed;" parent="2" vertex="1">
                    <mxGeometry x="80" y="150" width="50" height="50" as="geometry"/>
                </mxCell>
                <mxCell id="HLrtYbc_yfZJu5hpqQ70-46" style="edgeStyle=orthogonalEdgeStyle;rounded=0;orthogonalLoop=1;jettySize=auto;html=1;exitX=0.5;exitY=1;exitDx=0;exitDy=0;entryX=0;entryY=0.5;entryDx=0;entryDy=0;curved=1;" parent="2" source="HLrtYbc_yfZJu5hpqQ70-35" target="HLrtYbc_yfZJu5hpqQ70-45" edge="1">
                    <mxGeometry relative="1" as="geometry"/>
                </mxCell>
                <mxCell id="HLrtYbc_yfZJu5hpqQ70-77" style="edgeStyle=orthogonalEdgeStyle;curved=1;rounded=0;orthogonalLoop=1;jettySize=auto;html=1;exitX=0.5;exitY=1;exitDx=0;exitDy=0;entryX=0.5;entryY=1;entryDx=0;entryDy=0;" parent="2" source="HLrtYbc_yfZJu5hpqQ70-54" target="HLrtYbc_yfZJu5hpqQ70-45" edge="1">
                    <mxGeometry relative="1" as="geometry">
                        <Array as="points">
                            <mxPoint x="295" y="250"/>
                            <mxPoint x="105" y="250"/>
                        </Array>
                    </mxGeometry>
                </mxCell>
                <mxCell id="HLrtYbc_yfZJu5hpqQ70-82" value="0000" style="edgeLabel;html=1;align=center;verticalAlign=middle;resizable=0;points=[];" parent="HLrtYbc_yfZJu5hpqQ70-77" vertex="1" connectable="0">
                    <mxGeometry x="-0.087" relative="1" as="geometry">
                        <mxPoint x="-73" y="-10" as="offset"/>
                    </mxGeometry>
                </mxCell>
                <mxCell id="HLrtYbc_yfZJu5hpqQ70-54" value="button&lt;br&gt;check" style="ellipse;whiteSpace=wrap;html=1;aspect=fixed;" parent="2" vertex="1">
                    <mxGeometry x="270" y="150" width="50" height="50" as="geometry"/>
                </mxCell>
                <mxCell id="HLrtYbc_yfZJu5hpqQ70-66" style="rounded=0;orthogonalLoop=1;jettySize=auto;html=1;exitX=1;exitY=0.5;exitDx=0;exitDy=0;entryX=0;entryY=0;entryDx=0;entryDy=0;" parent="2" source="HLrtYbc_yfZJu5hpqQ70-36" target="HLrtYbc_yfZJu5hpqQ70-54" edge="1">
                    <mxGeometry relative="1" as="geometry"/>
                </mxCell>
                <mxCell id="HLrtYbc_yfZJu5hpqQ70-67" style="rounded=0;orthogonalLoop=1;jettySize=auto;html=1;exitX=1;exitY=0.5;exitDx=0;exitDy=0;entryX=0;entryY=1;entryDx=0;entryDy=0;" parent="2" source="HLrtYbc_yfZJu5hpqQ70-37" target="HLrtYbc_yfZJu5hpqQ70-54" edge="1">
                    <mxGeometry relative="1" as="geometry"/>
                </mxCell>
                <mxCell id="HLrtYbc_yfZJu5hpqQ70-63" style="edgeStyle=orthogonalEdgeStyle;curved=1;rounded=0;orthogonalLoop=1;jettySize=auto;html=1;exitX=1;exitY=0.5;exitDx=0;exitDy=0;entryX=0;entryY=0.5;entryDx=0;entryDy=0;" parent="2" source="HLrtYbc_yfZJu5hpqQ70-60" target="HLrtYbc_yfZJu5hpqQ70-43" edge="1">
                    <mxGeometry relative="1" as="geometry"/>
                </mxCell>
                <mxCell id="HLrtYbc_yfZJu5hpqQ70-94" style="edgeStyle=orthogonalEdgeStyle;curved=1;rounded=0;orthogonalLoop=1;jettySize=auto;html=1;exitX=0.5;exitY=1;exitDx=0;exitDy=0;entryX=0;entryY=0.5;entryDx=0;entryDy=0;" parent="2" source="HLrtYbc_yfZJu5hpqQ70-60" target="HLrtYbc_yfZJu5hpqQ70-44" edge="1">
                    <mxGeometry relative="1" as="geometry">
                        <Array as="points">
                            <mxPoint x="245" y="108"/>
                        </Array>
                    </mxGeometry>
                </mxCell>
                <mxCell id="HLrtYbc_yfZJu5hpqQ70-60" value="buy" style="ellipse;whiteSpace=wrap;html=1;aspect=fixed;" parent="2" vertex="1">
                    <mxGeometry x="220" y="40" width="50" height="50" as="geometry"/>
                </mxCell>
                <mxCell id="HLrtYbc_yfZJu5hpqQ70-61" style="edgeStyle=orthogonalEdgeStyle;curved=1;rounded=0;orthogonalLoop=1;jettySize=auto;html=1;exitX=0.5;exitY=0;exitDx=0;exitDy=0;entryX=0;entryY=0.5;entryDx=0;entryDy=0;" parent="2" source="HLrtYbc_yfZJu5hpqQ70-45" target="HLrtYbc_yfZJu5hpqQ70-60" edge="1">
                    <mxGeometry relative="1" as="geometry"/>
                </mxCell>
                <mxCell id="HLrtYbc_yfZJu5hpqQ70-69" value="1000" style="edgeLabel;html=1;align=center;verticalAlign=middle;resizable=0;points=[];" parent="HLrtYbc_yfZJu5hpqQ70-61" vertex="1" connectable="0">
                    <mxGeometry x="0.0454" y="-13" relative="1" as="geometry">
                        <mxPoint x="15" y="2" as="offset"/>
                    </mxGeometry>
                </mxCell>
                <mxCell id="HLrtYbc_yfZJu5hpqQ70-136" style="edgeStyle=orthogonalEdgeStyle;curved=1;rounded=0;orthogonalLoop=1;jettySize=auto;html=1;exitX=0;exitY=0.5;exitDx=0;exitDy=0;entryX=1;entryY=0.5;entryDx=0;entryDy=0;endSize=6;strokeWidth=1;" parent="2" source="HLrtYbc_yfZJu5hpqQ70-131" target="HLrtYbc_yfZJu5hpqQ70-54" edge="1">
                    <mxGeometry relative="1" as="geometry"/>
                </mxCell>
                <mxCell id="HLrtYbc_yfZJu5hpqQ70-131" value="release" style="ellipse;whiteSpace=wrap;html=1;aspect=fixed;" parent="2" vertex="1">
                    <mxGeometry x="340" y="152.5" width="45" height="45" as="geometry"/>
                </mxCell>
                <mxCell id="HLrtYbc_yfZJu5hpqQ70-146" value="" style="rounded=0;orthogonalLoop=1;jettySize=auto;html=1;entryX=0.5;entryY=0;entryDx=0;entryDy=0;" parent="2" target="HLrtYbc_yfZJu5hpqQ70-35" edge="1">
                    <mxGeometry x="-0.5" y="15" relative="1" as="geometry">
                        <mxPoint x="44.72" y="72.5" as="targetPoint"/>
                        <mxPoint x="45" y="40" as="sourcePoint"/>
                        <mxPoint as="offset"/>
                    </mxGeometry>
                </mxCell>
                <mxCell id="HLrtYbc_yfZJu5hpqQ70-147" value="xxx1" style="edgeLabel;html=1;align=center;verticalAlign=middle;resizable=0;points=[];" parent="HLrtYbc_yfZJu5hpqQ70-146" vertex="1" connectable="0">
                    <mxGeometry x="-0.2228" y="-1" relative="1" as="geometry">
                        <mxPoint as="offset"/>
                    </mxGeometry>
                </mxCell>
                <mxCell id="HLrtYbc_yfZJu5hpqQ70-103" style="edgeStyle=orthogonalEdgeStyle;curved=1;rounded=0;orthogonalLoop=1;jettySize=auto;html=1;exitX=1;exitY=0.5;exitDx=0;exitDy=0;" parent="1" source="4" edge="1">
                    <mxGeometry relative="1" as="geometry">
                        <mxPoint x="120" y="292.5" as="targetPoint"/>
                    </mxGeometry>
                </mxCell>
                <mxCell id="HLrtYbc_yfZJu5hpqQ70-117" style="edgeStyle=orthogonalEdgeStyle;rounded=0;orthogonalLoop=1;jettySize=auto;html=1;exitX=0.5;exitY=0;exitDx=0;exitDy=0;endSize=6;strokeWidth=1;" parent="1" source="4" edge="1">
                    <mxGeometry relative="1" as="geometry">
                        <mxPoint x="710" y="60" as="targetPoint"/>
                        <Array as="points">
                            <mxPoint x="25" y="293"/>
                            <mxPoint x="-25" y="293"/>
                            <mxPoint x="-25" y="200"/>
                            <mxPoint x="710" y="200"/>
                        </Array>
                    </mxGeometry>
                </mxCell>
                <mxCell id="4" value="price" style="rounded=0;whiteSpace=wrap;html=1;fontStyle=1" parent="1" vertex="1">
                    <mxGeometry x="-10" y="280" width="70" height="25" as="geometry"/>
                </mxCell>
                <mxCell id="6" value="Datapath" style="swimlane;" parent="1" vertex="1">
                    <mxGeometry x="120" y="230" width="470" height="100" as="geometry"/>
                </mxCell>
                <mxCell id="HLrtYbc_yfZJu5hpqQ70-112" value="&lt;b&gt;buy check&lt;/b&gt;" style="rounded=0;whiteSpace=wrap;html=1;" parent="6" vertex="1">
                    <mxGeometry x="10" y="40" width="76.25" height="30" as="geometry"/>
                </mxCell>
                <mxCell id="HLrtYbc_yfZJu5hpqQ70-113" value="&lt;b&gt;add 2&lt;/b&gt;" style="rounded=0;whiteSpace=wrap;html=1;" parent="6" vertex="1">
                    <mxGeometry x="100" y="40" width="76.25" height="30" as="geometry"/>
                </mxCell>
                <mxCell id="HLrtYbc_yfZJu5hpqQ70-114" value="&lt;b&gt;add 5&lt;/b&gt;" style="rounded=0;whiteSpace=wrap;html=1;" parent="6" vertex="1">
                    <mxGeometry x="190" y="40" width="76.25" height="30" as="geometry"/>
                </mxCell>
                <mxCell id="HLrtYbc_yfZJu5hpqQ70-115" value="&lt;b&gt;sub price&lt;/b&gt;" style="rounded=0;whiteSpace=wrap;html=1;" parent="6" vertex="1">
                    <mxGeometry x="280" y="40" width="76.25" height="30" as="geometry"/>
                </mxCell>
                <mxCell id="HLrtYbc_yfZJu5hpqQ70-124" value="&lt;b&gt;sum&lt;/b&gt;" style="rounded=0;whiteSpace=wrap;html=1;" parent="6" vertex="1">
                    <mxGeometry x="370" y="40" width="76.25" height="30" as="geometry"/>
                </mxCell>
                <mxCell id="HLrtYbc_yfZJu5hpqQ70-100" style="edgeStyle=orthogonalEdgeStyle;curved=1;rounded=0;orthogonalLoop=1;jettySize=auto;html=1;exitX=1;exitY=0.5;exitDx=0;exitDy=0;" parent="1" source="7" edge="1">
                    <mxGeometry relative="1" as="geometry">
                        <mxPoint x="120" y="-57.5" as="targetPoint"/>
                    </mxGeometry>
                </mxCell>
                <mxCell id="7" value="buy" style="rounded=0;whiteSpace=wrap;html=1;fontStyle=1" parent="1" vertex="1">
                    <mxGeometry x="-10" y="-70" width="70" height="25" as="geometry"/>
                </mxCell>
                <mxCell id="HLrtYbc_yfZJu5hpqQ70-98" style="edgeStyle=orthogonalEdgeStyle;curved=1;rounded=0;orthogonalLoop=1;jettySize=auto;html=1;exitX=1;exitY=0.5;exitDx=0;exitDy=0;" parent="1" source="8" edge="1">
                    <mxGeometry relative="1" as="geometry">
                        <mxPoint x="120" y="-17.5" as="targetPoint"/>
                    </mxGeometry>
                </mxCell>
                <mxCell id="8" value="coin2" style="rounded=0;whiteSpace=wrap;html=1;fontStyle=1" parent="1" vertex="1">
                    <mxGeometry x="-10" y="-30" width="70" height="25" as="geometry"/>
                </mxCell>
                <mxCell id="HLrtYbc_yfZJu5hpqQ70-101" style="edgeStyle=orthogonalEdgeStyle;curved=1;rounded=0;orthogonalLoop=1;jettySize=auto;html=1;exitX=1;exitY=0.5;exitDx=0;exitDy=0;" parent="1" source="9" edge="1">
                    <mxGeometry relative="1" as="geometry">
                        <mxPoint x="120" y="22.5" as="targetPoint"/>
                    </mxGeometry>
                </mxCell>
                <mxCell id="9" value="coin5" style="rounded=0;whiteSpace=wrap;html=1;fontStyle=1" parent="1" vertex="1">
                    <mxGeometry x="-10" y="10" width="70" height="25" as="geometry"/>
                </mxCell>
                <mxCell id="HLrtYbc_yfZJu5hpqQ70-102" style="edgeStyle=orthogonalEdgeStyle;curved=1;rounded=0;orthogonalLoop=1;jettySize=auto;html=1;exitX=1;exitY=0.5;exitDx=0;exitDy=0;" parent="1" source="12" edge="1">
                    <mxGeometry relative="1" as="geometry">
                        <mxPoint x="120" y="62.5" as="targetPoint"/>
                    </mxGeometry>
                </mxCell>
                <mxCell id="12" value="reset" style="rounded=0;whiteSpace=wrap;html=1;fontStyle=1" parent="1" vertex="1">
                    <mxGeometry x="-10" y="50" width="70" height="25" as="geometry"/>
                </mxCell>
                <mxCell id="19" value="alarm" style="rounded=0;whiteSpace=wrap;html=1;fontStyle=1" parent="1" vertex="1">
                    <mxGeometry x="580" y="90" width="90" height="25" as="geometry"/>
                </mxCell>
                <mxCell id="27" value="releaseCan" style="rounded=0;whiteSpace=wrap;html=1;fontStyle=1" parent="1" vertex="1">
                    <mxGeometry x="580" y="130" width="90" height="25" as="geometry"/>
                </mxCell>
                <mxCell id="HLrtYbc_yfZJu5hpqQ70-125" style="edgeStyle=orthogonalEdgeStyle;rounded=0;orthogonalLoop=1;jettySize=auto;html=1;exitX=1;exitY=0.5;exitDx=0;exitDy=0;entryX=0.75;entryY=1;entryDx=0;entryDy=0;endSize=6;strokeWidth=1;" parent="1" source="HLrtYbc_yfZJu5hpqQ70-124" edge="1">
                    <mxGeometry relative="1" as="geometry">
                        <mxPoint x="739.9999999999998" y="60.000000000000114" as="targetPoint"/>
                    </mxGeometry>
                </mxCell>
                <mxCell id="HLrtYbc_yfZJu5hpqQ70-128" value="display driver" style="rounded=0;whiteSpace=wrap;html=1;fontStyle=1" parent="1" vertex="1">
                    <mxGeometry x="580" y="-30" width="180" height="90" as="geometry"/>
                </mxCell>
            </root>
        </mxGraphModel>
    </diagram>
</mxfile>
